<?xml version="1.0" encoding="UTF-8" standalone="no"?>
<!-- Created with Inkscape (http://www.inkscape.org/) -->

<svg
   xmlns:dc="http://purl.org/dc/elements/1.1/"
   xmlns:cc="http://creativecommons.org/ns#"
   xmlns:rdf="http://www.w3.org/1999/02/22-rdf-syntax-ns#"
   xmlns:svg="http://www.w3.org/2000/svg"
   xmlns="http://www.w3.org/2000/svg"
   xmlns:xlink="http://www.w3.org/1999/xlink"
   xmlns:sodipodi="http://sodipodi.sourceforge.net/DTD/sodipodi-0.dtd"
   xmlns:inkscape="http://www.inkscape.org/namespaces/inkscape"
   width="131.24196"
   height="130.35001"
   id="svg2014"
   sodipodi:version="0.32"
   inkscape:version="0.48.3.1 r9886"
   version="1.0"
   sodipodi:docname="ubuntu-accomplishments-system.svg">
  <defs
     id="defs2016">
    <linearGradient
       inkscape:collect="always"
       id="linearGradient2555">
      <stop
         style="stop-color:#ffffff;stop-opacity:1;"
         offset="0"
         id="stop2557" />
      <stop
         style="stop-color:#ffffff;stop-opacity:0;"
         offset="1"
         id="stop2559" />
    </linearGradient>
    <linearGradient
       inkscape:collect="always"
       xlink:href="#linearGradient2555"
       id="linearGradient3166"
       gradientUnits="userSpaceOnUse"
       gradientTransform="matrix(-0.5914584,0,0,0.5914584,154.8957,149.46272)"
       x1="-344.15295"
       y1="274.711"
       x2="-395.84943"
       y2="425.39993" />
    <linearGradient
       y2="74.939651"
       x2="90.139999"
       y1="123.31897"
       x1="92.166664"
       gradientUnits="userSpaceOnUse"
       id="linearGradient4097"
       xlink:href="#linearGradient4099"
       inkscape:collect="always" />
    <linearGradient
       gradientUnits="userSpaceOnUse"
       y2="99"
       x2="98.5"
       y1="127"
       x1="100"
       id="linearGradient4094"
       xlink:href="#linearGradient4088"
       inkscape:collect="always" />
    <radialGradient
       r="5.2734375"
       fy="271.32739"
       fx="-226.07143"
       cy="271.32739"
       cx="-226.07143"
       gradientTransform="matrix(-8.6369005e-8,2.031746,-1.3629629,-5.793825e-8,47.13323,783.69327)"
       gradientUnits="userSpaceOnUse"
       id="radialGradient4189"
       xlink:href="#linearGradient3953"
       inkscape:collect="always" />
    <radialGradient
       r="6.2866349"
       fy="285.24863"
       fx="-193.85033"
       cy="285.24863"
       cx="-193.85033"
       gradientTransform="matrix(0.7721694,0.15673485,-0.06490996,0.4743155,-118.68886,249.90306)"
       gradientUnits="userSpaceOnUse"
       id="radialGradient4187"
       xlink:href="#linearGradient3961"
       inkscape:collect="always" />
    <radialGradient
       r="6.2866349"
       fy="285.24863"
       fx="-193.85033"
       cy="285.24863"
       cx="-193.85033"
       gradientTransform="matrix(0.9502716,0.192886,-0.07988155,0.58371719,-260.25926,813.70895)"
       gradientUnits="userSpaceOnUse"
       id="radialGradient4181"
       xlink:href="#linearGradient3961"
       inkscape:collect="always" />
    <radialGradient
       r="5.2734375"
       fy="271.32739"
       fx="-226.07143"
       cy="271.32739"
       cx="-226.07143"
       gradientTransform="matrix(-1.0629016e-7,2.5003717,-1.6773327,-7.1301808e-8,-68.017833,1423.1127)"
       gradientUnits="userSpaceOnUse"
       id="radialGradient4179"
       xlink:href="#linearGradient3953"
       inkscape:collect="always" />
    <radialGradient
       r="62.046875"
       fy="403.7388"
       fx="-192.93913"
       cy="403.7388"
       cx="-192.93913"
       gradientTransform="matrix(-6.2694994e-8,0.41626811,-0.75626583,-9.9326294e-8,-214.9118,985.75254)"
       gradientUnits="userSpaceOnUse"
       id="radialGradient4177"
       xlink:href="#linearGradient3918"
       inkscape:collect="always" />
    <radialGradient
       r="49.711224"
       fy="320.53235"
       fx="-273.75134"
       cy="320.53235"
       cx="-273.75134"
       gradientTransform="matrix(0.6210787,-1.8849273,-1.0512155,-0.30204677,40.112094,458.02174)"
       gradientUnits="userSpaceOnUse"
       id="radialGradient4175"
       xlink:href="#linearGradient3896"
       inkscape:collect="always" />
    <radialGradient
       r="49.711224"
       fy="320.53235"
       fx="-273.75134"
       cy="320.53235"
       cx="-273.75134"
       gradientTransform="matrix(-0.6210787,-1.8849273,1.0512155,-0.30204677,-1078.6729,457.42109)"
       gradientUnits="userSpaceOnUse"
       id="radialGradient4173"
       xlink:href="#linearGradient3896"
       inkscape:collect="always" />
    <radialGradient
       r="38.890873"
       fy="379.85995"
       fx="-199.00005"
       cy="379.85995"
       cx="-199.00005"
       gradientTransform="matrix(0.15584403,-1.7142858,0.9570922,0.08700819,-531.54808,4.3965634)"
       gradientUnits="userSpaceOnUse"
       id="radialGradient4171"
       xlink:href="#linearGradient3886"
       inkscape:collect="always" />
    <radialGradient
       r="42.421329"
       fy="316.23712"
       fx="-197.15332"
       cy="316.23712"
       cx="-197.15332"
       gradientTransform="matrix(-1.1182277,0.0551342,-0.09068266,-2.5015192,-679.00994,1500.9801)"
       gradientUnits="userSpaceOnUse"
       id="radialGradient4169"
       xlink:href="#linearGradient3872"
       inkscape:collect="always" />
    <radialGradient
       r="62.046875"
       fy="456.47113"
       fx="-188.89853"
       cy="456.47113"
       cx="-188.89853"
       gradientTransform="matrix(-0.11403351,7.2333305e-8,-5.1370729e-7,-0.70621865,-539.21329,1265.047)"
       gradientUnits="userSpaceOnUse"
       id="radialGradient4167"
       xlink:href="#linearGradient3908"
       inkscape:collect="always" />
    <linearGradient
       gradientTransform="matrix(0.63675565,0,0,0.59461726,-397.39056,671.91253)"
       y2="389.70212"
       x2="-201.02036"
       y1="245.25031"
       x1="-211.12189"
       gradientUnits="userSpaceOnUse"
       id="linearGradient4165"
       xlink:href="#linearGradient3854"
       inkscape:collect="always" />
    <linearGradient
       gradientTransform="matrix(0.63675565,0,0,0.59461726,-397.39056,671.91253)"
       y2="249.29091"
       x2="-217.1828"
       y1="218.98633"
       x1="-216.17264"
       gradientUnits="userSpaceOnUse"
       id="linearGradient4163"
       xlink:href="#linearGradient3842"
       inkscape:collect="always" />
    <radialGradient
       r="6.2866349"
       fy="285.24863"
       fx="-193.85033"
       cy="285.24863"
       cx="-193.85033"
       gradientTransform="matrix(0.9594512,0.19474928,-0.08065321,0.58935591,-260.62434,178.25247)"
       gradientUnits="userSpaceOnUse"
       id="radialGradient4107"
       xlink:href="#linearGradient3961"
       inkscape:collect="always" />
    <radialGradient
       r="5.2734375"
       fy="271.32739"
       fx="-226.07143"
       cy="271.32739"
       cx="-226.07143"
       gradientTransform="matrix(-1.0731693e-7,2.5245251,-1.6935357,-7.199058e-8,-66.303286,853.92148)"
       gradientUnits="userSpaceOnUse"
       id="radialGradient4105"
       xlink:href="#linearGradient3953"
       inkscape:collect="always" />
    <radialGradient
       r="38.890873"
       fy="379.85995"
       fx="-199.00005"
       cy="379.85995"
       cx="-199.00005"
       gradientTransform="matrix(0.15584403,-1.7142858,0.9570922,0.08700819,-531.54808,4.3965634)"
       gradientUnits="userSpaceOnUse"
       id="radialGradient4097"
       xlink:href="#linearGradient3886"
       inkscape:collect="always" />
    <radialGradient
       gradientUnits="userSpaceOnUse"
       gradientTransform="matrix(1.5443388,0.31346969,-0.12981992,0.948631,142.5512,75.37164)"
       r="6.2866349"
       fy="285.24863"
       fx="-193.85033"
       cy="285.24863"
       cx="-193.85033"
       id="radialGradient3967"
       xlink:href="#linearGradient3961"
       inkscape:collect="always" />
    <radialGradient
       gradientUnits="userSpaceOnUse"
       gradientTransform="matrix(-1.7273801e-7,4.0634919,-2.7259259,-1.158765e-7,513.5469,1182.7873)"
       r="5.2734375"
       fy="271.32739"
       fx="-226.07143"
       cy="271.32739"
       cx="-226.07143"
       id="radialGradient3959"
       xlink:href="#linearGradient3953"
       inkscape:collect="always" />
    <radialGradient
       gradientUnits="userSpaceOnUse"
       gradientTransform="matrix(-0.11552005,0.44604223,-1.5340915,-0.54706546,257.51838,583.13425)"
       r="49.663921"
       fy="310.99088"
       fx="-196.83202"
       cy="310.99088"
       cx="-196.83202"
       id="radialGradient3951"
       xlink:href="#linearGradient3945"
       inkscape:collect="always" />
    <radialGradient
       gradientUnits="userSpaceOnUse"
       gradientTransform="matrix(-4.9230025e-8,0.3500303,-0.59384305,-8.35212e-8,-66.352315,456.20047)"
       r="62.046875"
       fy="403.7388"
       fx="-192.93913"
       cy="403.7388"
       cx="-192.93913"
       id="radialGradient3924"
       xlink:href="#linearGradient3918"
       inkscape:collect="always" />
    <radialGradient
       gradientUnits="userSpaceOnUse"
       gradientTransform="matrix(-0.0895426,6.0823415e-8,-4.0337866e-7,-0.59384305,-321.00376,691.05285)"
       r="62.046875"
       fy="456.47113"
       fx="-188.89853"
       cy="456.47113"
       cx="-188.89853"
       id="radialGradient3914"
       xlink:href="#linearGradient3908"
       inkscape:collect="always" />
    <radialGradient
       r="49.711224"
       fy="320.53235"
       fx="-273.75134"
       cy="320.53235"
       cx="-273.75134"
       gradientTransform="matrix(0.48768998,-1.5849921,-0.8254465,-0.2539842,133.90024,12.443759)"
       gradientUnits="userSpaceOnUse"
       id="radialGradient3906"
       xlink:href="#linearGradient3896"
       inkscape:collect="always" />
    <radialGradient
       gradientUnits="userSpaceOnUse"
       gradientTransform="matrix(-0.48768998,-1.5849921,0.8254465,-0.2539842,-744.60397,11.938684)"
       r="49.711224"
       fy="320.53235"
       fx="-273.75134"
       cy="320.53235"
       cx="-273.75134"
       id="radialGradient3902"
       xlink:href="#linearGradient3896"
       inkscape:collect="always" />
    <radialGradient
       gradientUnits="userSpaceOnUse"
       gradientTransform="matrix(0.15584403,-1.7142858,0.9570922,0.08700819,-531.54808,4.3965634)"
       r="38.890873"
       fy="379.85995"
       fx="-199.00005"
       cy="379.85995"
       cx="-199.00005"
       id="radialGradient3892"
       xlink:href="#linearGradient3886"
       inkscape:collect="always" />
    <filter
       color-interpolation-filters="sRGB"
       id="filter3880"
       inkscape:collect="always">
      <feGaussianBlur
         id="feGaussianBlur3882"
         stdDeviation="2.7321539"
         inkscape:collect="always" />
    </filter>
    <radialGradient
       gradientUnits="userSpaceOnUse"
       gradientTransform="matrix(-1.1182277,0.0551342,-0.09068266,-2.5015192,-384.72423,1069.5515)"
       r="42.421329"
       fy="316.23712"
       fx="-197.15332"
       cy="316.23712"
       cx="-197.15332"
       id="radialGradient3878"
       xlink:href="#linearGradient3872"
       inkscape:collect="always" />
    <filter
       color-interpolation-filters="sRGB"
       height="1.0944517"
       y="-0.047225833"
       width="1.2546821"
       x="-0.12734108"
       id="filter3866"
       inkscape:collect="always">
      <feGaussianBlur
         id="feGaussianBlur3868"
         stdDeviation="3.0014581"
         inkscape:collect="always" />
    </filter>
    <filter
       color-interpolation-filters="sRGB"
       height="1.1023226"
       y="-0.051161319"
       width="1.2759056"
       x="-0.13795282"
       id="filter3862"
       inkscape:collect="always">
      <feGaussianBlur
         id="feGaussianBlur3864"
         stdDeviation="3.2515796"
         inkscape:collect="always" />
    </filter>
    <linearGradient
       gradientTransform="matrix(0.5,0,0,0.5,-209.64022,192.29962)"
       gradientUnits="userSpaceOnUse"
       y2="389.70212"
       x2="-201.02036"
       y1="245.25031"
       x1="-211.12189"
       id="linearGradient3860"
       xlink:href="#linearGradient3854"
       inkscape:collect="always" />
    <linearGradient
       gradientTransform="matrix(0.5,0,0,0.5,-209.64022,192.29962)"
       gradientUnits="userSpaceOnUse"
       y2="249.29091"
       x2="-217.1828"
       y1="218.98633"
       x1="-216.17264"
       id="linearGradient3848"
       xlink:href="#linearGradient3842"
       inkscape:collect="always" />
    <linearGradient
       id="linearGradient3842"
       inkscape:collect="always">
      <stop
         id="stop3844"
         offset="0"
         style="stop-color:#804d00;stop-opacity:1;" />
      <stop
         id="stop3846"
         offset="1"
         style="stop-color:#804d00;stop-opacity:0;" />
    </linearGradient>
    <linearGradient
       id="linearGradient3854"
       inkscape:collect="always">
      <stop
         id="stop3856"
         offset="0"
         style="stop-color:#b88100;stop-opacity:1;" />
      <stop
         id="stop3858"
         offset="1"
         style="stop-color:#fecd7b;stop-opacity:1" />
    </linearGradient>
    <linearGradient
       id="linearGradient3872">
      <stop
         id="stop3874"
         offset="0"
         style="stop-color:#dcac62;stop-opacity:1;" />
      <stop
         id="stop3876"
         offset="1"
         style="stop-color:#b88100;stop-opacity:1" />
    </linearGradient>
    <linearGradient
       id="linearGradient3886"
       inkscape:collect="always">
      <stop
         id="stop3888"
         offset="0"
         style="stop-color:#fed78a;stop-opacity:1;" />
      <stop
         id="stop3890"
         offset="1"
         style="stop-color:#fed78a;stop-opacity:0;" />
    </linearGradient>
    <linearGradient
       id="linearGradient3896"
       inkscape:collect="always">
      <stop
         id="stop3898"
         offset="0"
         style="stop-color:#e7bc77;stop-opacity:1;" />
      <stop
         id="stop3900"
         offset="1"
         style="stop-color:#e7bc77;stop-opacity:0;" />
    </linearGradient>
    <linearGradient
       id="linearGradient3908"
       inkscape:collect="always">
      <stop
         id="stop3910"
         offset="0"
         style="stop-color:#f6c374;stop-opacity:1;" />
      <stop
         id="stop3912"
         offset="1"
         style="stop-color:#b88100;stop-opacity:1" />
    </linearGradient>
    <linearGradient
       id="linearGradient3918">
      <stop
         id="stop3920"
         offset="0"
         style="stop-color:#fcca77;stop-opacity:1;" />
      <stop
         id="stop3922"
         offset="1"
         style="stop-color:#fcca77;stop-opacity:0;" />
    </linearGradient>
    <linearGradient
       id="linearGradient3945"
       inkscape:collect="always">
      <stop
         id="stop3947"
         offset="0"
         style="stop-color:#804d00;stop-opacity:1;" />
      <stop
         id="stop3949"
         offset="1"
         style="stop-color:#ffc022;stop-opacity:1" />
    </linearGradient>
    <linearGradient
       id="linearGradient3953"
       inkscape:collect="always">
      <stop
         id="stop3955"
         offset="0"
         style="stop-color:#804d00;stop-opacity:1;" />
      <stop
         id="stop3957"
         offset="1"
         style="stop-color:#ffc022;stop-opacity:1" />
    </linearGradient>
    <linearGradient
       id="linearGradient3961"
       inkscape:collect="always">
      <stop
         id="stop3963"
         offset="0"
         style="stop-color:#804d00;stop-opacity:1;" />
      <stop
         id="stop3965"
         offset="1"
         style="stop-color:#b88100;stop-opacity:1" />
    </linearGradient>
    <linearGradient
       id="linearGradient4088"
       inkscape:collect="always">
      <stop
         id="stop4090"
         offset="0"
         style="stop-color:#ffffff;stop-opacity:1;" />
      <stop
         id="stop4092"
         offset="1"
         style="stop-color:#ffffff;stop-opacity:0;" />
    </linearGradient>
    <linearGradient
       inkscape:collect="always"
       id="linearGradient4099">
      <stop
         style="stop-color:#ffc022;stop-opacity:1"
         offset="0"
         id="stop4101" />
      <stop
         style="stop-color:#ffffff;stop-opacity:0;"
         offset="1"
         id="stop4103" />
    </linearGradient>
    <linearGradient
       inkscape:collect="always"
       xlink:href="#linearGradient2555"
       id="linearGradient5094"
       gradientUnits="userSpaceOnUse"
       gradientTransform="matrix(-0.5914584,0,0,0.5914584,154.8957,149.46272)"
       x1="-344.15295"
       y1="274.711"
       x2="-395.84943"
       y2="425.39993" />
    <linearGradient
       inkscape:collect="always"
       xlink:href="#linearGradient2555"
       id="linearGradient5113"
       gradientUnits="userSpaceOnUse"
       gradientTransform="matrix(-0.5914584,0,0,0.5914584,154.8957,149.46272)"
       x1="-344.15295"
       y1="274.711"
       x2="-395.84943"
       y2="425.39993" />
  </defs>
  <sodipodi:namedview
     id="base"
     pagecolor="#ffffff"
     bordercolor="#666666"
     borderopacity="1.0"
     gridtolerance="10000"
     guidetolerance="10"
     objecttolerance="10"
     inkscape:pageopacity="0.0"
     inkscape:pageshadow="2"
     inkscape:zoom="2.8"
     inkscape:cx="12.147169"
     inkscape:cy="52.290124"
     inkscape:document-units="px"
     inkscape:current-layer="layer1"
     inkscape:window-width="1440"
     inkscape:window-height="876"
     inkscape:window-x="0"
     inkscape:window-y="24"
     showgrid="false"
     inkscape:window-maximized="1"
     fit-margin-top="0"
     fit-margin-left="0"
     fit-margin-right="0"
     fit-margin-bottom="0" />
  <metadata
     id="metadata2019">
    <rdf:RDF>
      <cc:Work
         rdf:about="">
        <dc:format>image/svg+xml</dc:format>
        <dc:type
           rdf:resource="http://purl.org/dc/dcmitype/StillImage" />
        <dc:creator>
          <cc:Agent>
            <dc:title>Lumen Design Studio</dc:title>
          </cc:Agent>
        </dc:creator>
        <dc:contributor>
          <cc:Agent>
            <dc:title>Lumen Design Studio</dc:title>
          </cc:Agent>
        </dc:contributor>
        <dc:title />
        <dc:description>error warning icon</dc:description>
        <dc:subject>
          <rdf:Bag>
            <rdf:li>error</rdf:li>
            <rdf:li>icon</rdf:li>
            <rdf:li>button</rdf:li>
            <rdf:li>red</rdf:li>
            <rdf:li>stop</rdf:li>
            <rdf:li>no</rdf:li>
            <rdf:li>warning</rdf:li>
            <rdf:li>negative</rdf:li>
            <rdf:li>delete</rdf:li>
            <rdf:li>cancel</rdf:li>
            <rdf:li>square</rdf:li>
          </rdf:Bag>
        </dc:subject>
        <cc:license
           rdf:resource="http://web.resource.org/cc/PublicDomain" />
      </cc:Work>
      <cc:License
         rdf:about="http://web.resource.org/cc/PublicDomain">
        <cc:permits
           rdf:resource="http://web.resource.org/cc/Reproduction" />
        <cc:permits
           rdf:resource="http://web.resource.org/cc/Distribution" />
        <cc:permits
           rdf:resource="http://web.resource.org/cc/DerivativeWorks" />
      </cc:License>
    </rdf:RDF>
  </metadata>
  <g
     inkscape:label="Layer 1"
     inkscape:groupmode="layer"
     id="layer1"
     transform="translate(-325.80763,-332.8093)">
    <text
       transform="scale(1.1209551,0.8920964)"
       sodipodi:linespacing="125%"
       id="text4155"
       y="719.0069"
       x="209.12633"
       style="font-size:9.51985645px;font-style:normal;font-weight:normal;line-height:125%;letter-spacing:0px;word-spacing:0px;opacity:0.37560975;fill:#ffc022;fill-opacity:1;stroke:none;font-family:Sans"
       xml:space="preserve"><tspan
         style="fill:#ffc022;fill-opacity:1"
         y="719.0069"
         x="209.12633"
         id="tspan4157"
         sodipodi:role="line" /></text>
    <g
       id="g5636">
      <rect
         inkscape:export-ydpi="7.7063322"
         inkscape:export-xdpi="7.7063322"
         inkscape:export-filename="C:\Documents and Settings\Molumen\Desktop\path3511111.png"
         transform="scale(-1,1)"
         ry="35.487503"
         rx="35.487503"
         y="332.80646"
         x="-457.04959"
         height="130.17355"
         width="131.24196"
         id="rect3417"
         style="fill:#f15d22;fill-opacity:1;fill-rule:evenodd;stroke:none" />
      <path
         inkscape:export-ydpi="7.7063322"
         inkscape:export-xdpi="7.7063322"
         inkscape:export-filename="C:\Documents and Settings\Molumen\Desktop\path3511111.png"
         sodipodi:nodetypes="ccccsssc"
         id="path3423"
         d="m 422.37545,338.37145 -61.89358,0 c -16.3834,0 -29.57292,13.18952 -29.57292,29.57291 l 0,59.89765 c 0.5303,12.78863 2.57017,4.70393 6.45298,-9.45861 4.51265,-16.45974 19.20898,-30.8458 37.10652,-41.62731 13.6606,-8.22914 28.95104,-13.48395 56.78372,-13.98385 15.78472,-0.28349 14.39119,-20.32067 -8.87672,-24.40079 z"
         style="fill:url(#linearGradient5113);fill-opacity:1;fill-rule:evenodd;stroke:none"
         inkscape:connector-curvature="0" />
      <path
         inkscape:export-ydpi="69.661575"
         inkscape:export-xdpi="69.661575"
         inkscape:export-filename="/home/jono/accomplishments/accomplishments/ubuntu-community/trophyimages/default.png"
         sodipodi:nodetypes="csscssccssccssscccssscsssccsssscc"
         style="font-size:medium;font-style:normal;font-variant:normal;font-weight:normal;font-stretch:normal;text-indent:0;text-align:start;text-decoration:none;line-height:normal;letter-spacing:normal;word-spacing:normal;text-transform:none;direction:ltr;block-progression:tb;writing-mode:lr-tb;text-anchor:start;baseline-shift:baseline;color:#000000;fill:#ffffff;fill-opacity:1;stroke:none;stroke-width:0;marker:none;visibility:visible;display:inline;overflow:visible;enable-background:accumulate;font-family:Sans;-inkscape-font-specification:Sans"
         d="m 435.02143,361.32291 c -0.87186,0.002 -1.77078,0.0453 -2.66546,0.1138 -1.78935,0.13704 -3.54161,0.38375 -4.95183,0.6714 -0.7051,0.14383 -1.32855,0.29324 -1.8362,0.45519 -0.50764,0.16195 -0.86766,0.26734 -1.26757,0.62589 -0.96458,0.86482 -1.41967,1.99756 -1.62297,3.12943 -0.20329,1.13187 -0.18985,2.28909 -0.18954,3.39117 3e-4,1.10208 -0.0185,2.14705 -0.21324,2.98149 -0.19472,0.83444 -0.51224,1.43491 -1.16095,1.88904 -0.3498,0.24488 -1.76747,0.3835 -3.02085,0.25036 -1.25339,-0.13315 -2.32191,-0.39829 -2.32191,-0.39829 l -0.47386,1.75248 c 0,0 1.18379,0.29396 2.59438,0.44381 1.41059,0.14985 3.06858,0.29538 4.3358,-0.59175 1.07696,-0.75393 1.6372,-1.84069 1.89544,-2.94735 0.25825,-1.10667 0.24909,-2.2662 0.24878,-3.37979 -3e-4,-1.1136 0.004,-2.18404 0.16585,-3.08391 0.16162,-0.89989 0.45747,-1.59212 1.04249,-2.11664 -0.10189,0.0914 0.18518,-0.0977 0.59232,-0.2276 0.40714,-0.12988 0.96609,-0.27568 1.62297,-0.40967 1.31376,-0.26798 3.00891,-0.5066 4.7149,-0.63727 1.70598,-0.13066 3.42942,-0.14214 4.78597,0.0114 1.35655,0.15353 2.27992,0.56908 2.44037,0.77383 2.12062,2.70592 2.48347,7.3767 1.31496,13.00706 -1.16851,5.63035 -3.81833,12.15664 -7.33296,18.4921 -7.02927,12.67092 -18.85703,23.34674 -27.45972,26.16085 l 0.60417,1.71835 c 9.64344,-3.15456 21.34965,-14.11121 28.51405,-27.02572 3.58221,-6.45725 6.30227,-13.11317 7.52251,-18.99281 1.22025,-5.87965 1.00352,-11.05551 -1.6585,-14.45229 -0.80784,-1.03082 -2.16623,-1.30355 -3.71979,-1.47937 -0.77679,-0.0879 -1.62775,-0.12729 -2.49961,-0.12518 z"
         id="path4047"
         inkscape:connector-curvature="0" />
      <path
         inkscape:export-ydpi="69.661575"
         inkscape:export-xdpi="69.661575"
         inkscape:export-filename="/home/jono/accomplishments/accomplishments/ubuntu-community/trophyimages/default.png"
         sodipodi:nodetypes="cssssccsssscsscsccssccscsccsssscc"
         style="font-size:medium;font-style:normal;font-variant:normal;font-weight:normal;font-stretch:normal;text-indent:0;text-align:start;text-decoration:none;line-height:normal;letter-spacing:normal;word-spacing:normal;text-transform:none;direction:ltr;block-progression:tb;writing-mode:lr-tb;text-anchor:start;baseline-shift:baseline;color:#000000;fill:#ffffff;fill-opacity:1;stroke:none;stroke-width:0;marker:none;visibility:visible;display:inline;overflow:visible;enable-background:accumulate;font-family:Sans;-inkscape-font-specification:Sans"
         d="m 435.49801,361.69075 c 0.90879,-0.002 1.78346,0.0368 2.59314,0.12373 1.61938,0.17378 3.03531,0.44333 3.87738,1.46216 2.7748,3.35729 3.0007,8.47297 1.72876,14.28425 -1.27193,5.81128 -4.09488,12.3898 -7.82883,18.77197 -7.46791,12.76435 -19.6317,23.57968 -29.68365,26.69756 l -0.62977,-1.69836 c 8.96712,-2.78139 21.24526,-13.31917 28.5723,-25.84276 3.66353,-6.26179 6.4256,-12.71219 7.64361,-18.27708 1.21801,-5.56489 0.83979,-10.18136 -1.37066,-12.85582 -0.16725,-0.20237 -1.12974,-0.61309 -2.54375,-0.76483 -1.41402,-0.15174 -3.21046,-0.14039 -4.98873,-0.0112 -1.77825,0.12915 -3.54521,0.365 -4.91462,0.62986 -0.68471,0.13243 -1.26733,0.27653 -1.69172,0.4049 -0.4244,0.12837 -0.72363,0.31524 -0.61742,0.22495 -0.6098,0.51843 -0.91818,1.2026 -1.08665,2.09203 -0.16848,0.88941 -0.16086,1.94741 -0.16053,3.04805 3e-4,1.10064 -0.002,2.24669 -0.27166,3.34049 -0.26918,1.09379 -0.85316,2.16792 -1.97574,2.91309 -1.3209,0.87681 -3.04913,0.73297 -4.51948,0.58486 -1.47034,-0.14811 -2.70428,-0.43865 -2.70428,-0.43865 l 0.49393,-1.7321 c 0,0 1.11379,0.26206 2.42027,0.39366 1.30648,0.1316 2.78421,-0.005 3.14882,-0.24745 0.67619,-0.44885 1.01952,-1.04233 1.22249,-1.86707 0.20296,-0.82474 0.22259,-1.85757 0.22227,-2.94683 -3e-4,-1.08926 -0.0267,-2.23303 0.18522,-3.35174 0.21191,-1.11871 0.68628,-2.23827 1.69172,-3.09304 0.41685,-0.35439 0.80447,-0.45855 1.33362,-0.61861 0.52915,-0.16006 1.16666,-0.30774 1.90164,-0.4499 1.46995,-0.2843 3.29645,-0.52814 5.1616,-0.6636 0.93258,-0.0677 1.88192,-0.11038 2.79072,-0.11247 z"
         id="path4061"
         inkscape:connector-curvature="0" />
      <path
         inkscape:export-ydpi="69.661575"
         inkscape:export-xdpi="69.661575"
         inkscape:export-filename="/home/jono/accomplishments/accomplishments/ubuntu-community/trophyimages/default.png"
         sodipodi:nodetypes="cssssccsssscsscsccssccscscsscsscc"
         style="font-size:medium;font-style:normal;font-variant:normal;font-weight:normal;font-stretch:normal;text-indent:0;text-align:start;text-decoration:none;line-height:normal;letter-spacing:normal;word-spacing:normal;text-transform:none;direction:ltr;block-progression:tb;writing-mode:lr-tb;text-anchor:start;baseline-shift:baseline;color:#000000;fill:#ffffff;fill-opacity:1;stroke:none;stroke-width:0;marker:none;visibility:visible;display:inline;overflow:visible;enable-background:accumulate;font-family:Sans;-inkscape-font-specification:Sans"
         d="m 347.16798,361.32291 c -0.87186,-0.002 -1.71098,0.0373 -2.48776,0.12517 -1.55357,0.17583 -2.91195,0.44856 -3.7198,1.47937 -2.66202,3.39678 -2.87874,8.57265 -1.6585,14.45229 1.22024,5.87965 3.92846,12.53557 7.51066,18.99282 7.1644,12.91451 18.88247,23.87115 28.5259,27.02572 l 0.60417,-1.71835 c -8.60269,-2.81411 -20.43044,-13.48994 -27.45971,-26.16086 -3.51464,-6.33545 -6.16446,-12.86174 -7.33297,-18.4921 -1.16851,-5.63036 -0.80565,-10.30113 1.31496,-13.00706 0.16045,-0.20475 1.08382,-0.6203 2.44037,-0.77383 1.35655,-0.15352 3.07999,-0.14204 4.78597,-0.0114 1.70599,0.13067 3.40114,0.36929 4.7149,0.63727 0.65688,0.13399 1.21583,0.27979 1.62297,0.40967 0.40714,0.12988 0.69421,0.31895 0.59232,0.22759 0.58502,0.52453 0.88086,1.21676 1.04249,2.11664 0.16163,0.89988 0.15432,1.97032 0.15401,3.08391 -3e-4,1.1136 0.002,2.27313 0.26062,3.37979 0.25824,1.10667 0.81848,2.19343 1.89543,2.94736 1.26723,0.88713 2.92523,0.7416 4.33581,0.59175 1.41059,-0.14985 2.59438,-0.44381 2.59438,-0.44381 l -0.47386,-1.75248 c 0,0 -1.06852,0.26514 -2.3219,0.39828 -1.25339,0.13315 -2.67106,-0.005 -3.02086,-0.25035 -0.64871,-0.45413 -0.97808,-1.0546 -1.1728,-1.88904 -0.19472,-0.83444 -0.21354,-1.87941 -0.21323,-2.9815 3e-4,-1.10207 0.0256,-2.25929 -0.1777,-3.39116 -0.2033,-1.13187 -0.65839,-2.26461 -1.62297,-3.12943 -0.39991,-0.35855 -0.77177,-0.46395 -1.27942,-0.62589 -0.50764,-0.16195 -1.11925,-0.31136 -1.82435,-0.45519 -1.41022,-0.28765 -3.16248,-0.53436 -4.95183,-0.67141 -0.89467,-0.0685 -1.80544,-0.11169 -2.6773,-0.1138 z"
         id="path4045"
         inkscape:connector-curvature="0" />
      <path
         inkscape:export-ydpi="69.661575"
         inkscape:export-xdpi="69.661575"
         inkscape:export-filename="/home/jono/accomplishments/accomplishments/ubuntu-community/trophyimages/default.png"
         sodipodi:nodetypes="cssssccssssssccsccssccscsccscssc"
         inkscape:connector-curvature="0"
         id="path4059"
         d="m 347.53143,361.32291 c -0.9088,-0.002 -1.78347,0.0368 -2.59315,0.12372 -1.61938,0.17378 -3.03531,0.44334 -3.87737,1.46216 -2.7748,3.35729 -3.00071,8.47297 -1.72877,14.28425 1.27194,5.81128 4.09488,12.3898 7.82884,18.77198 7.4679,12.76434 19.63169,24.77576 29.68365,27.89363 l 0.62977,-1.69836 c -8.96713,-2.78138 -21.24527,-14.51525 -28.57231,-27.03883 -3.66353,-6.2618 -6.4256,-12.7122 -7.64361,-18.27709 -1.21801,-5.56489 -0.83979,-10.18136 1.37066,-12.85582 0.16725,-0.20236 1.12974,-0.61309 2.54376,-0.76483 1.41401,-0.15174 3.21046,-0.14039 4.98871,-0.0112 1.77826,0.12915 3.54522,0.365 4.91464,0.62986 0.68471,0.13243 1.26733,0.27653 1.69172,0.4049 0.42438,0.12838 0.72362,0.31525 0.61741,0.22495 0.6098,0.51843 0.91818,1.20261 1.08666,2.09203 0.16847,0.88942 0.16085,1.94741 0.16052,3.04806 -3e-4,1.10064 0.002,2.24668 0.27167,3.34048 0.26918,1.0938 0.85315,2.16792 1.97573,2.91309 1.32091,0.87681 3.04914,0.73298 4.51948,0.58487 1.47035,-0.14812 2.70429,-0.43866 2.70429,-0.43866 l -0.49394,-1.7321 c 0,0 -1.11379,0.26206 -2.42027,0.39366 -1.30648,0.1316 -2.78421,-0.005 -3.14882,-0.24745 -0.67619,-0.44885 -1.01952,-1.04233 -1.22248,-1.86707 -0.20297,-0.82474 -0.2226,-1.85757 -0.22227,-2.94682 3e-4,-1.08927 0.0267,-2.23303 -0.18523,-3.35175 -0.21191,-1.1187 -0.68628,-2.23827 -1.69172,-3.09304 -0.41685,-0.35438 -0.80446,-0.45855 -1.33362,-0.61861 -0.52915,-0.16006 -1.16666,-0.30774 -1.90163,-0.4499 -1.46996,-0.2843 -3.29646,-0.52814 -5.1616,-0.66359 -0.93258,-0.0677 -1.88194,-0.11039 -2.79072,-0.11248 z"
         style="font-size:medium;font-style:normal;font-variant:normal;font-weight:normal;font-stretch:normal;text-indent:0;text-align:start;text-decoration:none;line-height:normal;letter-spacing:normal;word-spacing:normal;text-transform:none;direction:ltr;block-progression:tb;writing-mode:lr-tb;text-anchor:start;baseline-shift:baseline;color:#000000;fill:#ffffff;fill-opacity:1;stroke:none;stroke-width:0;marker:none;visibility:visible;display:inline;overflow:visible;enable-background:accumulate;font-family:Sans;-inkscape-font-specification:Sans" />
      <path
         inkscape:export-ydpi="69.661575"
         inkscape:export-xdpi="69.661575"
         inkscape:export-filename="/home/jono/accomplishments/accomplishments/ubuntu-community/trophyimages/default.png"
         inkscape:connector-curvature="0"
         style="fill:#ffffff;fill-opacity:1;stroke:#000000;stroke-width:0;stroke-linecap:butt;stroke-linejoin:miter;stroke-miterlimit:4;stroke-opacity:1;stroke-dasharray:none"
         d="m 388.19231,370.42671 0.0474,0.1138 c -3.01908,0.0667 -6.54243,0.15333 -8.79009,0.25035 -5.28387,0.22808 -15.69657,2.20768 -15.69657,2.20768 l -0.77002,2.20767 c 0,0 11.19403,-1.98192 16.85753,-2.20767 3.79306,-0.1512 8.80355,-0.45122 11.26599,-0.60313 2.46972,0.15233 7.46697,0.45216 11.25416,0.60313 5.6635,0.22575 16.84568,2.20767 16.84568,2.20767 l -0.75817,-2.20767 c 0,0 -10.41271,-1.9796 -15.69658,-2.20768 -2.24766,-0.097 -5.77101,-0.18362 -8.79009,-0.25035 l 0.0474,-0.1138 c 0,0 -1.81708,0.0363 -2.90238,0.0569 -1.09306,-0.0208 -2.91424,-0.0569 -2.91424,-0.0569 z"
         id="path4037" />
      <path
         inkscape:export-ydpi="69.661575"
         inkscape:export-xdpi="69.661575"
         inkscape:export-filename="/home/jono/accomplishments/accomplishments/ubuntu-community/trophyimages/default.png"
         style="fill:#ffffff;fill-opacity:1;stroke:#000000;stroke-width:0;stroke-linecap:butt;stroke-linejoin:miter;stroke-miterlimit:4;stroke-opacity:1;stroke-dasharray:none"
         d="m 389.72051,372.27023 0,0.1138 c -7.98258,0.20366 -15.26443,-0.49033 -25.96747,3.19771 0,0 -0.85061,18.59266 1.91913,28.68837 2.06578,7.52977 5.58324,16.35725 11.47923,21.7012 8.37928,6.57106 20.33529,6.35618 27.8866,0 5.896,-5.34395 9.4253,-14.17143 11.49109,-21.7012 2.76973,-10.09571 1.91912,-28.68837 1.91912,-28.68837 -10.70847,-3.68991 -17.99198,-3.00441 -25.97932,-3.20909 l 0,-0.10242 c -0.46268,0.0268 -0.9182,0.0501 -1.37419,0.0683 -0.45287,-0.0182 -0.9147,-0.0416 -1.37419,-0.0683 z"
         id="path4039"
         inkscape:connector-curvature="0"
         sodipodi:nodetypes="cccsccsccccc" />
      <path
         inkscape:export-ydpi="69.661575"
         inkscape:export-xdpi="69.661575"
         inkscape:export-filename="/home/jono/accomplishments/accomplishments/ubuntu-community/trophyimages/default.png"
         style="fill:#ffffff;fill-opacity:1;stroke:#000000;stroke-width:0;stroke-linecap:butt;stroke-linejoin:miter;stroke-miterlimit:4;stroke-opacity:1;stroke-dasharray:none"
         d="m 386.28869,428.98408 0.99104,3.4477 0.99103,7.96255 -2.9731,1.85516 2.30901,2.12609 c 0,0 2.91673,10.06815 -3.26298,13.87783 -1.40718,0.8675 -1.27964,-0.50629 -1.27964,-0.50629 l -3.44148,1.51106 -9.25352,3.67603 c 6.53197,0.19427 13.14528,0.30392 20.16496,-3.7e-4 7.01992,0.30435 14.89298,0.18087 20.53232,0.0627 l -9.25352,-3.73835 -3.44148,-1.51106 c 0,0 0.12754,1.37379 -1.27964,0.50629 -6.17971,-3.80968 -3.26298,-13.87783 -3.26298,-13.87783 l 2.30899,-2.12609 -2.97309,-1.85516 0.99104,-7.96255 0.99104,-3.4477 c -8.04051,2.23352 -2.72773,0.9512 -8.858,0 z"
         id="path4041"
         inkscape:connector-curvature="0"
         sodipodi:nodetypes="cccccscccccccscccccc" />
      <path
         inkscape:export-ydpi="69.661575"
         inkscape:export-xdpi="69.661575"
         inkscape:export-filename="/home/jono/accomplishments/accomplishments/ubuntu-community/trophyimages/default.png"
         transform="matrix(0.37908716,0,0,0.36415223,608.13395,289.30205)"
         style="fill:#ffffff;fill-opacity:1;stroke:#000000;stroke-width:0;stroke-linecap:butt;stroke-linejoin:miter;stroke-miterlimit:4;stroke-opacity:1;stroke-dasharray:none;filter:url(#filter3862)"
         d="m -592.13203,378.34534 c -24.34186,-21.17521 -40.34192,-23.95756 -46.46702,-141.42136 l 6.06092,-2.0203 c 0.99724,55.24396 -7.934,101.34849 40.4061,143.44166 z"
         id="path4051"
         inkscape:connector-curvature="0"
         sodipodi:nodetypes="cccc" />
      <path
         inkscape:export-ydpi="69.661575"
         inkscape:export-xdpi="69.661575"
         inkscape:export-filename="/home/jono/accomplishments/accomplishments/ubuntu-community/trophyimages/default.png"
         transform="matrix(0.37908716,0,0,0.36415223,608.13395,289.30205)"
         sodipodi:nodetypes="cccc"
         inkscape:connector-curvature="0"
         id="path4053"
         d="m -561.82747,388.44686 c 24.34186,-21.17521 50.44345,-33.04893 56.56855,-150.51273 l -6.06092,-2.0203 c -0.99724,55.24396 -2.16753,110.43986 -50.50763,152.53303 z"
         style="fill:#ffffff;fill-opacity:1;stroke:#000000;stroke-width:0;stroke-linecap:butt;stroke-linejoin:miter;stroke-miterlimit:4;stroke-opacity:1;stroke-dasharray:none;filter:url(#filter3866)" />
      <path
         inkscape:export-ydpi="69.661575"
         inkscape:export-xdpi="69.661575"
         inkscape:export-filename="/home/jono/accomplishments/accomplishments/ubuntu-community/trophyimages/default.png"
         transform="matrix(0.37908716,0,0,0.36415223,608.13395,289.30205)"
         style="fill:#ffffff;fill-opacity:1;stroke:#000000;stroke-width:0;stroke-linecap:butt;stroke-linejoin:miter;stroke-miterlimit:4;stroke-opacity:1;stroke-dasharray:none;filter:url(#filter3880)"
         d="m -614.35539,236.18319 13.13199,83.57331 60.60915,-1.14485 10.10152,-84.71813 c -29.79783,-11.81867 -56.63225,-3.48616 -83.84266,2.28967 z"
         id="path4055"
         inkscape:connector-curvature="0"
         sodipodi:nodetypes="ccccc" />
      <path
         transform="matrix(0.6062628,0,0,0.6062628,461.62593,372.29279)"
         d="m -88,40.242462 a 28.5,26.75 0 1 1 -57,0 28.5,26.75 0 1 1 57,0 z"
         sodipodi:ry="26.75"
         sodipodi:rx="28.5"
         sodipodi:cy="40.242462"
         sodipodi:cx="-116.5"
         id="path4929"
         style="fill:#ffffff;fill-opacity:1;stroke:none"
         sodipodi:type="arc" />
      <rect
         inkscape:export-ydpi="7.7063322"
         inkscape:export-xdpi="7.7063322"
         inkscape:export-filename="C:\Documents and Settings\Molumen\Desktop\path3511111.png"
         transform="scale(-1,1)"
         ry="4.575582"
         rx="7.0305042"
         y="446.16254"
         x="-388.3082"
         height="16.78393"
         width="26.00062"
         id="rect3417-7"
         style="fill:#f15d22;fill-opacity:1;fill-rule:evenodd;stroke:none" />
      <rect
         inkscape:export-ydpi="7.7063322"
         inkscape:export-xdpi="7.7063322"
         inkscape:export-filename="C:\Documents and Settings\Molumen\Desktop\path3511111.png"
         transform="scale(-1,1)"
         ry="4.575582"
         rx="7.0305042"
         y="446.16257"
         x="-419.15854"
         height="16.78393"
         width="26.00062"
         id="rect3417-7-6"
         style="fill:#f15d22;fill-opacity:1;fill-rule:evenodd;stroke:none" />
      <rect
         inkscape:export-ydpi="7.7063322"
         inkscape:export-xdpi="7.7063322"
         inkscape:export-filename="C:\Documents and Settings\Molumen\Desktop\path3511111.png"
         transform="scale(-1,1)"
         ry="0.72019762"
         rx="1.6871485"
         y="460.34753"
         x="-393.83051"
         height="2.641794"
         width="6.239511"
         id="rect3417-7-1"
         style="fill:#ffffff;fill-opacity:1;fill-rule:evenodd;stroke:none" />
      <g
         transform="matrix(1.2066017,0,0,1.2066017,104.95524,-120.93872)"
         id="g5631">
        <path
           sodipodi:type="arc"
           style="fill:#f15d22;fill-opacity:1;stroke:none"
           id="path5116"
           sodipodi:cx="-99.752563"
           sodipodi:cy="100.29797"
           sodipodi:rx="17.425131"
           sodipodi:ry="14.647212"
           d="m -82.327433,100.29797 c 0,8.08944 -7.801496,14.64722 -17.42513,14.64722 -9.623637,0 -17.425127,-6.55778 -17.425127,-14.64722 0,-8.089428 7.80149,-14.647208 17.425127,-14.647208 9.623634,0 17.42513,6.55778 17.42513,14.647208 z"
           transform="matrix(1,0,0,1.0431034,338.93961,324.0667)" />
        <text
           xml:space="preserve"
           style="font-size:87.54941559px;font-style:normal;font-weight:normal;line-height:125%;letter-spacing:0px;word-spacing:0px;fill:#ffffff;fill-opacity:1;stroke:none;font-family:Sans"
           x="218.05072"
           y="478.53922"
           id="text4906"
           sodipodi:linespacing="125%"><tspan
             sodipodi:role="line"
             id="tspan4908"
             x="218.05072"
             y="478.53922"></tspan></text>
      </g>
    </g>
  </g>
</svg>
